<svg xmlns="http://www.w3.org/2000/svg" viewBox="0 0 48 48"><path fill="#D92228" d="M21.024 5.374c1.428-2.1 4.524-2.1 5.952 0l2.255 3.314 3.84-1.408c2.43-.892 4.98.998 4.833 3.584l-.209 3.673 3.688.933c2.587.655 3.587 3.8 1.853 5.828L40.93 24l2.307 2.702c1.734 2.029.734 5.173-1.853 5.828l-3.688.933.21 3.673c.146 2.586-2.404 4.476-4.835 3.584l-3.839-1.408-2.255 3.314c-1.428 2.1-4.524 2.1-5.952 0l-2.255-3.314-3.84 1.408c-2.43.892-4.98-.998-4.833-3.584l.209-3.673-3.688-.933c-2.587-.655-3.587-3.8-1.853-5.828L7.07 24l-2.307-2.702C3.03 19.27 4.03 16.125 6.617 15.47l3.688-.933-.21-3.673C9.95 8.278 12.499 6.388 14.93 7.28l3.839 1.408 2.255-3.314Z"/><circle cx="24" cy="24" r="12" fill="#fff"/><path fill-opacity=".23" d="M33.307 31.576A13.021 13.021 0 0 1 30 32c-7.18 0-13-5.82-13-13 0-1.975.44-3.847 1.228-5.523A11.997 11.997 0 0 0 12 24c0 6.627 5.373 12 12 12 3.755 0 7.107-1.724 9.307-4.424Z"/><path d="M20.198 4.812c1.825-2.683 5.78-2.683 7.606 0L29.62 7.48l3.106-1.14c3.107-1.139 6.365 1.277 6.177 4.58l-.162 2.85 2.888.73c3.306.838 4.583 4.855 2.368 7.448L42.245 24l1.752 2.052c2.215 2.593.938 6.61-2.368 7.447l-2.888.731.162 2.85c.188 3.303-3.07 5.719-6.177 4.579l-3.106-1.14-1.816 2.67c-1.826 2.682-5.78 2.682-7.606 0l-1.816-2.67-3.107 1.14c-3.107 1.14-6.364-1.276-6.177-4.58l.162-2.849-2.887-.73c-3.306-.838-4.584-4.855-2.369-7.448L5.757 24l-1.753-2.052c-2.215-2.593-.937-6.61 2.369-7.447l2.887-.731-.162-2.85c-.187-3.303 3.07-5.719 6.177-4.579l3.107 1.14 1.816-2.67Zm5.952 1.125a2.6 2.6 0 0 0-4.299 0L19.596 9.25a1 1 0 0 1-1.17.376l-3.84-1.408c-1.756-.645-3.597.72-3.49 2.588l.208 3.673a1 1 0 0 1-.753 1.026l-3.688.934c-1.868.473-2.59 2.743-1.338 4.209l2.308 2.701a1 1 0 0 1 0 1.3L5.525 27.35c-1.252 1.466-.53 3.736 1.338 4.21l3.688.933a1 1 0 0 1 .753 1.026l-.209 3.673c-.106 1.867 1.735 3.233 3.491 2.588l3.84-1.408a1 1 0 0 1 1.17.376l2.255 3.314a2.6 2.6 0 0 0 4.3 0l2.254-3.314a1 1 0 0 1 1.171-.376l3.84 1.408c1.755.645 3.597-.72 3.49-2.588l-.208-3.673a1 1 0 0 1 .753-1.026l3.687-.934c1.869-.473 2.59-2.743 1.339-4.209l-2.308-2.701a1 1 0 0 1 0-1.3l2.308-2.701c1.252-1.466.53-3.736-1.339-4.21l-3.687-.933a1 1 0 0 1-.753-1.026l.208-3.673c.107-1.867-1.735-3.233-3.49-2.588l-3.84 1.408a1 1 0 0 1-1.17-.376L26.15 5.937Z"/><path d="M24 15a1 1 0 0 1 1 1v1.053c1.149.125 2.205.461 3.05.968C29.115 18.661 30 19.682 30 21a1 1 0 1 1-2 0c0-.34-.234-.817-.979-1.264-.52-.312-1.215-.555-2.021-.668v3.968a9.22 9.22 0 0 1 2.075.387c.667.216 1.392.564 1.959 1.143.591.604.966 1.416.966 2.434 0 1.018-.375 1.83-.966 2.434-.567.58-1.292.927-1.959 1.143a9.22 9.22 0 0 1-2.075.387V32a1 1 0 1 1-2 0v-1.053c-1.149-.125-2.205-.461-3.05-.968C18.885 29.339 18 28.318 18 27a1 1 0 1 1 2 0c0 .34.234.817.979 1.264.52.312 1.215.555 2.021.668v-3.968a9.22 9.22 0 0 1-2.075-.387c-.667-.216-1.392-.564-1.959-1.143C18.375 22.83 18 22.018 18 21c0-1.018.375-1.83.966-2.434.567-.58 1.292-.927 1.959-1.143A9.22 9.22 0 0 1 23 17.036V16a1 1 0 0 1 1-1Zm-1 4.044a6.948 6.948 0 0 0-1.46.283c-.494.16-.886.374-1.145.638-.234.24-.395.553-.395 1.035 0 .482.161.795.395 1.035.26.264.65.479 1.145.638a6.95 6.95 0 0 0 1.46.284v-3.913Zm2 6v3.912a6.948 6.948 0 0 0 1.46-.283c.494-.16.886-.374 1.145-.638.234-.24.395-.553.395-1.035 0-.482-.161-.795-.395-1.035-.26-.264-.65-.479-1.145-.638a6.948 6.948 0 0 0-1.46-.284Z"/><path d="M24 13c-6.075 0-11 4.925-11 11s4.925 11 11 11 11-4.925 11-11-4.925-11-11-11ZM11 24c0-7.18 5.82-13 13-13s13 5.82 13 13-5.82 13-13 13-13-5.82-13-13Z"/></svg>