<svg xmlns="http://www.w3.org/2000/svg" viewBox="0 0 48 48"><path fill="#D92228" d="M1.234 8.417v19.9c0 .58.47 1.05 1.05 1.05h3.423v4.581c0 .58.47 1.05 1.05 1.05h3.244v4.585c0 .58.47 1.05 1.05 1.05h34.666c.58 0 1.05-.47 1.05-1.05v-19.9c0-.58-.47-1.05-1.05-1.05h-3.243V14.05c0-.58-.47-1.05-1.05-1.05H38V8.416c0-.58-.47-1.05-1.05-1.05H2.285c-.58 0-1.05.47-1.05 1.05Z"/><path fill="#fff" d="M28.383 37.847c2.495 0 4.518-1.546 4.518-3.453h-9.036c0 1.907 2.023 3.453 4.518 3.453Zm-12.602 2.182H10.77v-5.03c2.129 0 5.011 2.893 5.011 5.03Zm25.965-21.127h4.727v5.694c-2.009 0-4.727-3.275-4.727-5.694Zm4.104 16.097v5.03h-5.013c0-2.137 2.882-5.03 5.011-5.03ZM24.203 32.39c2.496 0 4.518-1.546 4.518-3.453h-9.035c0 1.907 2.022 3.453 4.517 3.453Zm-12.717 2.004H6.475v-5.03c2.129 0 5.011 2.893 5.011 5.03ZM37.66 13.267h3.897v5.031c-2.13 0-3.898-2.894-3.898-5.03Zm3.896 16.097v5.03h-5.011c0-2.137 2.882-5.03 5.011-5.03ZM25.69 18.16c0 4.445-2.755 8.048-6.153 8.048-3.399 0-6.154-3.603-6.154-8.048s2.755-8.049 6.154-8.049c3.398 0 6.153 3.604 6.153 8.049ZM7.014 28.762H2.002v-5.03c2.13 0 5.012 2.893 5.012 5.03ZM32.072 7.635h5.012v5.03c-2.13 0-5.012-2.893-5.012-5.03ZM1 13.671V7.635h6.014c0 2.564-3.46 6.036-6.014 6.036Zm36.084 10.061v5.03h-5.012c0-2.137 2.883-5.03 5.012-5.03Z"/><ellipse cx="7.117" cy="18.104" fill="#fff" rx="2.506" ry="2.515"/><ellipse cx="32.115" cy="18.104" fill="#fff" rx="2.506" ry="2.515"/><path fill-opacity=".23" d="M42.473 12.857h-4V26.32H1.936v3.377h3.537v5.3H10v5.635h36.474V18.764h-4v-5.907Z"/><path fill-rule="evenodd" d="M4.707 30.364H2.285a2.05 2.05 0 0 1-2.05-2.05v-19.9a2.05 2.05 0 0 1 2.05-2.05H36.95A2.05 2.05 0 0 1 39 8.414V12h2.423a2.05 2.05 0 0 1 2.05 2.05v3.584h2.243a2.05 2.05 0 0 1 2.05 2.05v19.9a2.05 2.05 0 0 1-2.05 2.05H11.051a2.05 2.05 0 0 1-2.05-2.05V36H6.758a2.05 2.05 0 0 1-2.05-2.05v-3.585ZM2.234 8.414a.05.05 0 0 1 .05-.05H5.95a4.02 4.02 0 0 1-3.715 3.292V8.414Zm0 5.244v9.075c3.085.117 5.57 2.564 5.768 5.63h23.084c.2-3.115 2.762-5.59 5.915-5.634v-9.067c-3.038-.042-5.528-2.343-5.884-5.298H7.97c-.35 2.907-2.765 5.181-5.737 5.294ZM33.14 8.364A4.019 4.019 0 0 0 37 11.66V8.415a.05.05 0 0 0-.05-.05h-3.812ZM37 24.73a4.02 4.02 0 0 0-3.91 3.634h3.86a.05.05 0 0 0 .05-.05V24.73ZM5.996 28.364a4.021 4.021 0 0 0-3.762-3.629v3.578c0 .028.023.05.05.05h3.712ZM39 13.998v2.375a3.98 3.98 0 0 0 2.473.923V14.05a.05.05 0 0 0-.05-.05H39Zm0 4.728v3.215a3.51 3.51 0 0 1 .55 1.89 3.51 3.51 0 0 1-.55 1.89v2.592c0 .237-.04.465-.114.677a5.968 5.968 0 0 1 2.587-.626v-9.067a5.97 5.97 0 0 1-2.473-.57ZM37.09 30.36A6.017 6.017 0 0 0 35.558 34H12.476a6.017 6.017 0 0 0-1.527-3.635h8.013c1.271 1.614 3.07 2.686 5.13 2.686s3.858-1.072 5.13-2.686h7.73c.046 0 .093-.002.139-.005Zm-10.772.005h-4.455c.692.449 1.45.686 2.228.686.777 0 1.535-.237 2.227-.686Zm17.156-10.73v2.515a3.977 3.977 0 0 0 2.294.782v-3.247a.05.05 0 0 0-.05-.05h-2.244Zm0 4.808v3.45a3.51 3.51 0 0 1 .37 1.573c0 .565-.133 1.1-.37 1.573v2.91c0 .2-.029.394-.082.576A5.97 5.97 0 0 1 45.768 34v-9.067a5.975 5.975 0 0 1-2.294-.49Zm-2.095 11.556h-7.865c-1.271 1.615-3.07 2.687-5.13 2.687s-3.858-1.072-5.13-2.687h-8.012a6.017 6.017 0 0 1 1.527 3.635h23.083a6.017 6.017 0 0 1 1.527-3.635Zm-15.222 0c.692.45 1.45.687 2.227.687.777 0 1.536-.238 2.228-.687h-4.455Zm15.317-5.633A4.02 4.02 0 0 0 37.564 34h3.86a.05.05 0 0 0 .05-.05v-3.584ZM10.469 34a4.021 4.021 0 0 0-3.762-3.629v3.578c0 .028.023.05.05.05h3.712ZM11 36.005v3.578c0 .028.023.05.05.05h3.711A4.021 4.021 0 0 0 11 36.005Zm30.858 3.628h3.858a.05.05 0 0 0 .05-.05v-3.584a4.02 4.02 0 0 0-3.909 3.634Z"/><path d="M19.617 9.109c-2.099 0-3.929 1.114-5.203 2.78-1.273 1.665-2.031 3.921-2.031 6.373 0 2.451.758 4.708 2.031 6.373 1.274 1.665 3.104 2.78 5.203 2.78s3.929-1.115 5.203-2.78c1.273-1.665 2.031-3.922 2.031-6.373 0-2.452-.758-4.708-2.031-6.373-1.274-1.665-3.104-2.78-5.203-2.78Zm-5.234 9.153c0-2.052.637-3.872 1.62-5.158.983-1.285 2.27-1.995 3.614-1.995 1.345 0 2.631.71 3.614 1.995.983 1.286 1.62 3.107 1.62 5.158 0 2.052-.637 3.872-1.62 5.158-.983 1.285-2.27 1.995-3.614 1.995-1.345 0-2.631-.71-3.614-1.995-.983-1.286-1.62-3.107-1.62-5.158Zm17.381-3.534a3.495 3.495 0 0 0-3.49 3.5c0 1.93 1.559 3.5 3.49 3.5 1.932 0 3.491-1.57 3.491-3.5s-1.56-3.5-3.49-3.5Zm-1.49 3.5c0-.832.67-1.5 1.49-1.5s1.491.668 1.491 1.5-.67 1.5-1.49 1.5-1.492-.668-1.492-1.5Zm-26.057 0c0-1.93 1.56-3.5 3.49-3.5 1.932 0 3.491 1.57 3.491 3.5s-1.56 3.5-3.49 3.5a3.495 3.495 0 0 1-3.491-3.5Zm3.49-1.5c-.82 0-1.49.668-1.49 1.5s.67 1.5 1.49 1.5 1.491-.668 1.491-1.5-.67-1.5-1.49-1.5Z"/><path d="M19.616 12.073a1 1 0 0 1 1 1v.098a4.536 4.536 0 0 1 1.683.667c.723.484 1.324 1.261 1.324 2.253a1 1 0 1 1-2 0c0-.119-.072-.347-.437-.591a2.315 2.315 0 0 0-.57-.27v1.94c.31.045.66.12 1.004.244.447.161.95.427 1.345.879.414.47.658 1.085.658 1.823 0 .737-.244 1.351-.658 1.822-.396.452-.898.718-1.345.879a5.154 5.154 0 0 1-1.004.243v.074a1 1 0 0 1-2 0v-.099a4.534 4.534 0 0 1-1.682-.666c-.724-.484-1.325-1.261-1.325-2.253a1 1 0 1 1 2 0c0 .119.072.347.437.591.156.104.348.197.57.27v-1.94a5.248 5.248 0 0 1-1.003-.244c-.447-.161-.95-.427-1.346-.879-.413-.471-.658-1.085-.658-1.823s.245-1.351.658-1.823c.396-.45.899-.717 1.346-.878a5.163 5.163 0 0 1 1.003-.243v-.074a1 1 0 0 1 1-1Zm-1 3.105a2.506 2.506 0 0 0-.325.094c-.251.09-.42.201-.52.316-.084.095-.162.235-.162.503s.078.41.161.504c.101.115.27.226.52.316.107.038.217.07.326.094v-1.827Zm2 4.024v1.827c.11-.025.22-.055.326-.094.25-.09.42-.201.52-.316.083-.095.161-.235.161-.503 0-.269-.078-.41-.16-.504-.101-.115-.27-.226-.521-.316a2.743 2.743 0 0 0-.326-.094Z"/></svg>