<svg xmlns="http://www.w3.org/2000/svg" viewBox="0 0 48 48"><path fill="#D92228" d="M8 5a3 3 0 0 1 3-3h26a3 3 0 0 1 3 3v38a3 3 0 0 1-3 3H11a3 3 0 0 1-3-3V5Z"/><path d="M7 6.8A5.8 5.8 0 0 1 12.8 1h22.4A5.8 5.8 0 0 1 41 6.8v34.4a5.8 5.8 0 0 1-5.8 5.8H12.8A5.8 5.8 0 0 1 7 41.2V6.8ZM12.8 3A3.8 3.8 0 0 0 9 6.8v34.4a3.8 3.8 0 0 0 3.8 3.8h22.4a3.8 3.8 0 0 0 3.8-3.8V6.8A3.8 3.8 0 0 0 35.2 3H12.8Z"/><path fill="#fff" d="M12 8.4A2.4 2.4 0 0 1 14.4 6h19.2A2.4 2.4 0 0 1 36 8.4v4.2a2.4 2.4 0 0 1-2.4 2.4H14.4a2.4 2.4 0 0 1-2.4-2.4V8.4Z"/><path fill-opacity=".23" d="M9 6.75A3.75 3.75 0 0 1 12.75 3H13v42h-.25A3.75 3.75 0 0 1 9 41.25V6.75Z"/><path fill-rule="evenodd" d="M33.6 8H14.4a.4.4 0 0 0-.4.4v4.2c0 .22.18.4.4.4h19.2a.4.4 0 0 0 .4-.4V8.4a.4.4 0 0 0-.4-.4ZM14.4 6A2.4 2.4 0 0 0 12 8.4v4.2a2.4 2.4 0 0 0 2.4 2.4h19.2a2.4 2.4 0 0 0 2.4-2.4V8.4A2.4 2.4 0 0 0 33.6 6H14.4Z"/><path fill="#fff" d="M18 21a3 3 0 1 1-6 0 3 3 0 0 1 6 0Z"/><path fill-rule="evenodd" d="M15 22a1 1 0 1 0 0-2 1 1 0 0 0 0 2Zm0 2a3 3 0 1 0 0-6 3 3 0 0 0 0 6Z" clip-rule="evenodd"/><path fill="#fff" d="M18 30a3 3 0 1 1-6 0 3 3 0 0 1 6 0Z"/><path fill-rule="evenodd" d="M15 31a1 1 0 1 0 0-2 1 1 0 0 0 0 2Zm0 2a3 3 0 1 0 0-6 3 3 0 0 0 0 6Z" clip-rule="evenodd"/><path fill="#fff" d="M27 21a3 3 0 1 1-6 0 3 3 0 0 1 6 0Z"/><path fill-rule="evenodd" d="M24 22a1 1 0 1 0 0-2 1 1 0 0 0 0 2Zm0 2a3 3 0 1 0 0-6 3 3 0 0 0 0 6Z" clip-rule="evenodd"/><path fill="#fff" d="M27 30a3 3 0 1 1-6 0 3 3 0 0 1 6 0Z"/><path fill-rule="evenodd" d="M24 31a1 1 0 1 0 0-2 1 1 0 0 0 0 2Zm0 2a3 3 0 1 0 0-6 3 3 0 0 0 0 6Z" clip-rule="evenodd"/><path fill="#fff" d="M36 21a3 3 0 1 1-6 0 3 3 0 0 1 6 0Z"/><path fill-rule="evenodd" d="M33 22a1 1 0 1 0 0-2 1 1 0 0 0 0 2Zm0 2a3 3 0 1 0 0-6 3 3 0 0 0 0 6Z" clip-rule="evenodd"/><path fill="#fff" d="M36 30a3 3 0 1 1-6 0 3 3 0 0 1 6 0Z"/><path fill-rule="evenodd" d="M33 31a1 1 0 1 0 0-2 1 1 0 0 0 0 2Zm0 2a3 3 0 1 0 0-6 3 3 0 0 0 0 6Z" clip-rule="evenodd"/><path fill="#fff" d="M36 39a3 3 0 1 1-6 0 3 3 0 0 1 6 0Z"/><path fill-rule="evenodd" d="M33 40a1 1 0 1 0 0-2 1 1 0 0 0 0 2Zm0 2a3 3 0 1 0 0-6 3 3 0 0 0 0 6Z" clip-rule="evenodd"/><path fill="#fff" d="M12 39a3 3 0 0 1 3-3h9a3 3 0 1 1 0 6h-9a3 3 0 0 1-3-3Z"/><path fill-rule="evenodd" d="M24 38h-9a1 1 0 1 0 0 2h9a1 1 0 1 0 0-2Zm-9-2a3 3 0 1 0 0 6h9a3 3 0 1 0 0-6h-9Z"/></svg>